<svg width="34" height="34" viewBox="0 0 34 34" fill="none" xmlns="http://www.w3.org/2000/svg">
<path d="M31.9494 10.4921C31.3298 9.08443 30.5097 7.77262 29.5142 6.5969C28.0427 4.80699 26.2064 3.34697 24.126 2.31295C22.0456 1.27894 19.7683 0.694364 17.4441 0.597698C15.1199 0.501033 12.8015 0.894468 10.6413 1.75213C8.48127 2.60978 6.52848 3.9122 4.91153 5.57367C3.29458 7.23512 2.05012 9.21797 1.26008 11.3917C0.470037 13.5654 0.152303 15.8807 0.327808 18.1851C0.503326 20.4897 1.16808 22.7311 2.27834 24.7619C3.3886 26.7928 4.91919 28.5671 6.76937 29.9679C7.95653 30.8847 9.26832 31.63 10.6657 32.1816C12.6248 32.9792 14.7217 33.39 16.839 33.3913C21.2094 33.3817 25.3977 31.6509 28.486 28.5783C31.574 25.5057 33.31 21.3421 33.3132 17.0001C33.3163 14.7604 32.852 12.5444 31.9494 10.4921ZM16.8268 3.9235C18.7282 3.92331 20.6066 4.33617 22.3304 5.13318C21.91 5.31363 21.468 5.43966 21.0153 5.50819C19.5257 5.72241 18.1458 6.40948 17.0815 7.46686C16.0172 8.52423 15.3256 9.89521 15.11 11.3751C15.0153 12.2051 14.6353 12.9772 14.0342 13.5613C13.4331 14.1453 12.6476 14.5053 11.8102 14.5808C10.3206 14.795 8.94067 15.4821 7.87638 16.5395C6.81208 17.5969 6.12049 18.9678 5.90487 20.4477C5.83186 21.2369 5.49294 21.9785 4.94296 22.5525C3.99402 20.5606 3.56773 18.3623 3.70377 16.1627C3.8398 13.963 4.53372 11.8332 5.72097 9.97154C6.90821 8.10995 8.5502 6.57695 10.4941 5.51525C12.438 4.45356 14.6207 3.89767 16.839 3.89931L16.8268 3.9235ZM6.75719 25.4679C6.9033 25.3348 7.04942 25.2138 7.19553 25.0687C8.27877 24.0253 8.9741 22.648 9.16805 21.1614C9.24668 20.3258 9.62221 19.5453 10.2274 18.9598C10.8097 18.3576 11.5935 17.9876 12.4312 17.9195C13.9208 17.7052 15.3008 17.0181 16.3651 15.9608C17.4294 14.9034 18.121 13.5325 18.3366 12.0525C18.3893 11.1786 18.7668 10.3551 19.3959 9.74206C19.9927 9.15156 20.7839 8.795 21.6241 8.73802C22.9926 8.55096 24.2689 7.94655 25.277 7.00819C26.4248 7.95424 27.3972 9.09233 28.1505 10.3711C28.1042 10.4331 28.0512 10.49 27.9922 10.5404C27.4111 11.1479 26.6283 11.5261 25.7884 11.605C24.2972 11.8154 22.9152 12.5013 21.8501 13.5593C20.7852 14.6174 20.0948 15.9904 19.883 17.4719C19.7971 18.3046 19.4242 19.0823 18.8273 19.6731C18.2303 20.2641 17.4462 20.6317 16.6076 20.7138C15.1136 20.9264 13.7286 21.6121 12.6581 22.669C11.5877 23.7261 10.8889 25.0978 10.6657 26.5808C10.6002 27.1719 10.3958 27.7396 10.0691 28.238C8.8198 27.5011 7.70095 26.5653 6.75719 25.4679ZM16.8268 30.1372C15.5913 30.1385 14.3616 29.9675 13.174 29.6292C13.5803 28.8767 13.8444 28.0567 13.9532 27.2098C14.0386 26.3789 14.4098 25.6026 15.0043 25.0121C15.5987 24.4215 16.38 24.0527 17.2164 23.9679C18.7082 23.7561 20.0909 23.07 21.1577 22.0124C22.2243 20.9549 22.9177 19.5825 23.134 18.1009C23.2193 17.27 23.5906 16.4938 24.185 15.9032C24.7794 15.3126 25.5608 14.9438 26.3972 14.859C27.5198 14.714 28.5898 14.2987 29.5142 13.6493C30.0276 15.5823 30.0883 17.6063 29.692 19.5662C29.2957 21.5261 28.4526 23.3699 27.2277 24.9559C26.0028 26.5418 24.4285 27.8281 22.6255 28.7157C20.8226 29.6034 18.839 30.069 16.8268 30.0767V30.1372Z" fill="#0D0E14"/>
</svg>
